<?xml version="1.0" standalone="no"?>
<!DOCTYPE svg PUBLIC "-//W3C//DTD SVG 20010904//EN"
 "http://www.w3.org/TR/2001/REC-SVG-20010904/DTD/svg10.dtd">
<svg version="1.0" xmlns="http://www.w3.org/2000/svg"
 width="512.000000pt" height="512.000000pt" viewBox="0 0 512.000000 512.000000"
 preserveAspectRatio="xMidYMid meet">

<g transform="translate(0.000000,512.000000) scale(0.100000,-0.100000)"
fill="#000000" stroke="none">
<path d="M0 2560 l0 -2560 2560 0 2560 0 0 2560 0 2560 -2560 0 -2560 0 0
-2560z m2600 1144 c-243 -47 -545 -107 -556 -111 -8 -3 10 -35 55 -96 232
-315 467 -687 527 -832 22 -55 11 -42 -104 130 -129 194 -262 372 -376 509
l-91 108 -57 -6 c-53 -5 -228 -56 -256 -74 -9 -6 14 -26 76 -65 200 -127 462
-364 621 -562 67 -83 63 -81 -54 24 -77 70 -287 229 -407 309 l-76 52 -59 -26
c-32 -15 -69 -30 -83 -36 -22 -8 -16 -13 70 -53 213 -98 409 -222 555 -351
l30 -27 -40 23 c-186 105 -250 138 -385 198 -85 38 -199 86 -252 106 l-98 38
0 379 0 379 518 -1 c478 -1 511 -2 442 -15z m132 -71 c45 -49 125 -166 169
-247 l42 -78 -78 -78 -78 -79 -54 35 c-101 65 -278 144 -322 144 -3 0 40 -46
95 -102 107 -110 163 -179 238 -295 26 -40 48 -73 50 -73 2 0 66 80 142 178
228 294 552 675 416 489 -89 -121 -195 -292 -248 -400 l-54 -112 20 -65 c11
-36 20 -72 20 -80 0 -14 -348 -289 -357 -283 -2 2 -41 76 -86 165 -98 194
-201 360 -376 609 -80 115 -124 186 -117 190 6 4 74 19 151 33 146 28 386 74
396 75 3 1 17 -11 31 -26z m636 -1275 c8 -8 12 -64 12 -185 0 -162 1 -173 20
-183 11 -6 20 -17 20 -25 0 -12 -16 -15 -80 -15 -80 0 -98 9 -60 30 19 10 20
21 20 169 l0 158 -27 12 c-31 14 -21 29 29 41 48 11 53 11 66 -2z m-1675 -45
c3 -5 2 -28 -2 -53 -5 -40 -9 -45 -31 -45 -20 0 -26 6 -28 28 -3 25 -6 27 -53
27 l-49 0 0 -56 0 -57 60 6 60 5 0 -29 c0 -29 0 -29 -60 -29 l-60 0 0 -56 0
-55 47 3 c46 3 59 13 76 62 1 5 13 6 25 2 23 -8 29 -44 16 -93 -6 -23 -9 -23
-155 -23 -149 0 -178 7 -124 32 l25 11 0 149 c0 141 -1 148 -20 148 -11 0 -20
7 -20 15 0 13 23 15 144 15 80 0 147 -3 149 -7z m479 -103 c12 -19 13 -19 46
2 69 43 142 -17 142 -116 0 -89 -53 -147 -135 -150 -44 -1 -45 -2 -45 -33 0
-27 5 -34 26 -39 16 -4 24 -12 22 -23 -4 -22 -168 -30 -168 -7 0 7 7 16 15 20
12 4 15 32 15 161 0 150 -1 155 -21 155 -29 0 -21 32 11 41 48 13 79 10 92
-11z m408 5 c28 -15 60 -60 60 -86 0 -7 -7 -21 -17 -31 -13 -14 -31 -18 -89
-18 -67 0 -72 -1 -67 -20 3 -11 17 -30 32 -41 25 -20 53 -22 110 -8 8 2 16 -3
18 -12 6 -24 -86 -63 -131 -55 -74 14 -125 89 -111 163 18 98 113 150 195 108z
m194 -11 l10 -21 45 23 c46 25 72 24 104 -4 14 -12 17 -32 17 -108 0 -83 2
-94 20 -104 11 -6 20 -17 20 -25 0 -12 -16 -15 -75 -15 -70 0 -97 12 -60 26
22 9 21 156 -1 178 -18 19 -17 19 -49 4 -24 -11 -25 -15 -25 -89 0 -70 2 -78
21 -84 43 -14 12 -30 -64 -33 -78 -3 -97 7 -57 28 18 9 20 21 20 101 0 86 -1
90 -25 99 -33 12 -32 26 3 39 43 16 86 9 96 -15z m424 20 c20 -6 23 -12 20
-48 -3 -36 -6 -41 -28 -41 -18 0 -26 6 -28 22 -3 23 -34 39 -52 28 -24 -15 -9
-45 33 -66 79 -40 102 -78 81 -134 -16 -41 -113 -58 -179 -31 -33 14 -33 16
-22 45 13 37 17 37 59 11 43 -26 68 -26 68 0 0 13 -14 27 -42 41 -82 41 -105
79 -78 129 22 41 101 61 168 44z m-1331 -24 c-3 -11 3 -30 13 -42 l17 -22 12
21 c7 14 8 24 1 28 -5 3 -10 13 -10 21 0 11 15 14 65 14 72 0 85 -15 41 -44
-14 -8 -37 -31 -51 -50 l-27 -35 32 -44 c17 -25 42 -49 56 -56 13 -6 24 -17
24 -26 0 -12 -14 -15 -71 -15 -66 0 -70 1 -64 20 4 12 -1 30 -12 44 -23 32
-27 32 -41 2 -9 -19 -8 -25 4 -30 8 -3 14 -12 14 -21 0 -12 -14 -15 -75 -15
-41 0 -75 2 -75 4 0 2 27 32 60 65 l61 62 -32 43 c-17 24 -41 48 -55 54 -15 8
-22 17 -18 27 5 11 22 15 71 15 60 0 65 -2 60 -20z m1713 9 c0 -7 -7 -17 -15
-23 -13 -10 -12 -20 5 -85 11 -41 21 -76 23 -78 2 -2 12 31 22 73 17 71 17 77
1 86 -9 5 -16 16 -16 23 0 12 16 15 75 15 79 0 90 -8 56 -38 -10 -10 -31 -57
-46 -107 -14 -49 -42 -113 -60 -142 -33 -50 -91 -103 -113 -103 -10 0 -42 49
-42 64 0 3 23 15 50 27 53 23 61 34 33 41 -12 3 -29 37 -52 102 -23 67 -41
102 -57 113 -47 30 -30 43 56 43 53 0 80 -4 80 -11z"/>
<path d="M2182 2078 c3 -81 3 -83 30 -86 36 -4 58 30 58 88 -1 57 -18 80 -59
80 l-32 0 3 -82z"/>
<path d="M2480 2161 c-15 -30 -14 -31 35 -31 49 0 55 8 27 33 -25 22 -49 21
-62 -2z"/>
</g>
</svg>
